<svg width="40" height="40" viewBox="0 0 40 40" fill="none" xmlns="http://www.w3.org/2000/svg">
<path d="M31.4286 2.85714H28.5714V0H25.7143V2.85714H14.2857V0H11.4286V2.85714H8.57143C3.85714 2.85714 0 6.71429 0 11.4286V31.4286C0 36.1429 3.85714 40 8.57143 40H31.4286C36.1429 40 40 36.1429 40 31.4286V11.4286C40 6.71429 36.1429 2.85714 31.4286 2.85714ZM37.1429 31.4286C37.1429 34.5714 34.5714 37.1429 31.4286 37.1429H8.57143C5.42857 37.1429 2.85714 34.5714 2.85714 31.4286V11.4286C2.85714 8.28571 5.42857 5.71429 8.57143 5.71429H11.4286V8.57143H14.2857V5.71429H25.7143V8.57143H28.5714V5.71429H31.4286C34.5714 5.71429 37.1429 8.28571 37.1429 11.4286V31.4286Z" fill="white"/>
<path d="M18.7859 25.1429L12.4287 19L10.4287 21L18.8573 29.1429L31.0001 16.7143L29.0001 14.7143L18.7859 25.1429Z" fill="white"/>
</svg>
