<svg width="42" height="20" viewBox="0 0 42 20" fill="none" xmlns="http://www.w3.org/2000/svg">
<path d="M9.94901 0.8C7.60313 0.800001 5.25918 1.69306 3.47536 3.48158C-0.0917861 7.05811 -0.0917861 12.8937 3.47536 16.4702C7.04279 20.047 12.8607 20.047 16.4281 16.4702C17.6292 15.2659 19.917 12.9525 21 11.8569C22.0832 12.9525 24.3719 15.266 25.573 16.4702C29.1404 20.047 34.9572 20.047 38.5246 16.4702C42.0918 12.8937 42.0918 7.05811 38.5246 3.48158C36.7408 1.69306 34.3969 0.800001 32.051 0.8C29.7052 0.799999 27.3569 1.69299 25.573 3.48158C24.3719 4.68585 22.0832 6.9993 21 8.09492C19.917 6.99934 17.6292 4.68586 16.4281 3.48158C14.6442 1.69298 12.2947 0.799999 9.94901 0.8ZM9.94901 3.43356C11.6151 3.43356 13.2836 4.07065 14.5613 5.35177C15.5927 6.3858 17.3973 8.21357 18.5353 9.36608C18.768 9.60178 18.9728 9.80924 19.1374 9.97589C19.0425 10.0719 18.9343 10.1815 18.815 10.3022C17.7157 11.4148 15.6819 13.4732 14.5613 14.5967C12.0061 17.1587 7.89736 17.1587 5.34213 14.5967C2.78661 12.0345 2.78661 7.91402 5.34213 5.35177C6.62 4.07053 8.28304 3.43356 9.94901 3.43356ZM32.051 3.43356C33.717 3.43356 35.38 4.07053 36.6579 5.35177C39.2134 7.91402 39.2134 12.0345 36.6579 14.5967C34.1026 17.1587 29.9939 17.1587 27.4387 14.5967C26.3177 13.4729 24.2831 11.4137 23.1841 10.3013C23.0652 10.1809 22.9572 10.0717 22.8625 9.97589C23.0271 9.8093 23.2319 9.60193 23.4645 9.36634C24.6024 8.21383 26.4073 6.38588 27.4387 5.35177C28.7164 4.07065 30.3849 3.43356 32.051 3.43356Z" fill="white" stroke="white" stroke-width="0.4"/>
</svg>
