<svg width="24" height="25" viewBox="0 0 24 25" fill="none" xmlns="http://www.w3.org/2000/svg">
<path d="M18.408 5.0685C18.1232 5.0685 17.8448 5.15296 17.608 5.31119C17.3712 5.46942 17.1866 5.69431 17.0776 5.95744C16.9686 6.22056 16.9401 6.5101 16.9957 6.78943C17.0512 7.06877 17.1884 7.32535 17.3898 7.52674C17.5912 7.72813 17.8477 7.86527 18.1271 7.92083C18.4064 7.9764 18.6959 7.94788 18.9591 7.83889C19.2222 7.7299 19.4471 7.54533 19.6053 7.30853C19.7635 7.07172 19.848 6.79331 19.848 6.5085C19.848 6.12659 19.6963 5.76032 19.4262 5.49027C19.1562 5.22022 18.7899 5.0685 18.408 5.0685ZM23.928 7.9725C23.9047 6.97686 23.7182 5.99179 23.376 5.0565C23.0709 4.25626 22.596 3.53164 21.984 2.9325C21.3898 2.31742 20.6635 1.84552 19.86 1.5525C18.9272 1.1999 17.941 1.00916 16.944 0.988504C15.672 0.916504 15.264 0.916504 12 0.916504C8.736 0.916504 8.328 0.916504 7.056 0.988504C6.05898 1.00916 5.07281 1.1999 4.14 1.5525C3.33801 1.84848 2.61232 2.31998 2.016 2.9325C1.40091 3.52672 0.929012 4.25303 0.636 5.0565C0.283393 5.98932 0.092652 6.97549 0.0719999 7.9725C-6.4373e-08 9.2445 0 9.6525 0 12.9165C0 16.1805 -6.4373e-08 16.5885 0.0719999 17.8605C0.092652 18.8575 0.283393 19.8437 0.636 20.7765C0.929012 21.58 1.40091 22.3063 2.016 22.9005C2.61232 23.513 3.33801 23.9845 4.14 24.2805C5.07281 24.6331 6.05898 24.8239 7.056 24.8445C8.328 24.9165 8.736 24.9165 12 24.9165C15.264 24.9165 15.672 24.9165 16.944 24.8445C17.941 24.8239 18.9272 24.6331 19.86 24.2805C20.6635 23.9875 21.3898 23.5156 21.984 22.9005C22.5987 22.3036 23.074 21.5783 23.376 20.7765C23.7182 19.8412 23.9047 18.8561 23.928 17.8605C23.928 16.5885 24 16.1805 24 12.9165C24 9.6525 24 9.2445 23.928 7.9725ZM21.768 17.7165C21.7593 18.4782 21.6213 19.2329 21.36 19.9485C21.1684 20.4707 20.8607 20.9426 20.46 21.3285C20.0708 21.7251 19.5999 22.0322 19.08 22.2285C18.3644 22.4898 17.6097 22.6278 16.848 22.6365C15.648 22.6965 15.204 22.7085 12.048 22.7085C8.892 22.7085 8.448 22.7085 7.248 22.6365C6.45707 22.6513 5.66951 22.5295 4.92 22.2765C4.42294 22.0702 3.97363 21.7638 3.6 21.3765C3.20171 20.991 2.89781 20.5187 2.712 19.9965C2.41903 19.2707 2.25653 18.4988 2.232 17.7165C2.232 16.5165 2.16 16.0725 2.16 12.9165C2.16 9.7605 2.16 9.3165 2.232 8.1165C2.23738 7.33777 2.37954 6.56604 2.652 5.8365C2.86326 5.33 3.18752 4.87849 3.6 4.5165C3.96458 4.10391 4.41515 3.77622 4.92 3.5565C5.65146 3.29256 6.4224 3.1546 7.2 3.1485C8.4 3.1485 8.844 3.0765 12 3.0765C15.156 3.0765 15.6 3.0765 16.8 3.1485C17.5617 3.15724 18.3164 3.2952 19.032 3.5565C19.5773 3.75889 20.0668 4.08792 20.46 4.5165C20.8532 4.88512 21.1605 5.33578 21.36 5.8365C21.6267 6.56722 21.7647 7.33864 21.768 8.1165C21.828 9.3165 21.84 9.7605 21.84 12.9165C21.84 16.0725 21.828 16.5165 21.768 17.7165ZM12 6.7605C10.783 6.76288 9.59396 7.12594 8.58319 7.80381C7.57242 8.48168 6.78525 9.44394 6.32116 10.569C5.85707 11.6941 5.73687 12.9315 5.97575 14.1248C6.21464 15.3182 6.80188 16.4139 7.66329 17.2737C8.5247 18.1334 9.62161 18.7185 10.8154 18.9551C12.0092 19.1916 13.2464 19.069 14.3706 18.6027C15.4947 18.1365 16.4555 17.3474 17.1314 16.3353C17.8073 15.3233 18.168 14.1335 18.168 12.9165C18.1696 12.1066 18.011 11.3044 17.7015 10.5561C17.3919 9.80767 16.9375 9.12788 16.3642 8.55576C15.791 7.98365 15.1103 7.53052 14.3614 7.22242C13.6124 6.91432 12.8099 6.75734 12 6.7605ZM12 16.9125C11.2097 16.9125 10.4371 16.6781 9.77994 16.2391C9.1228 15.8 8.61062 15.1759 8.30818 14.4457C8.00573 13.7155 7.9266 12.9121 8.08078 12.1369C8.23497 11.3618 8.61555 10.6498 9.1744 10.0909C9.73325 9.53205 10.4453 9.15147 11.2204 8.99729C11.9956 8.8431 12.799 8.92223 13.5292 9.22468C14.2594 9.52713 14.8835 10.0393 15.3226 10.6964C15.7616 11.3536 15.996 12.1262 15.996 12.9165C15.996 13.4413 15.8926 13.9609 15.6918 14.4457C15.491 14.9305 15.1967 15.371 14.8256 15.7421C14.4545 16.1132 14.014 16.4075 13.5292 16.6083C13.0444 16.8091 12.5248 16.9125 12 16.9125Z" fill="#2A6112"/>
</svg>
