<svg width="42" height="31" viewBox="0 0 42 31" fill="none" xmlns="http://www.w3.org/2000/svg">
<path d="M38.2381 29.3515H3.76551C2.76604 29.3515 1.95581 28.5007 1.95581 27.4513V3.90019C1.95581 2.85074 2.76604 2 3.76551 2H38.2381C39.2375 2 40.0478 2.85074 40.0478 3.90019V27.4513C40.0478 28.5007 39.2375 29.3515 38.2381 29.3515Z" stroke="white" stroke-width="2.3" stroke-miterlimit="10" stroke-linecap="round" stroke-linejoin="round"/>
<path d="M40.0444 14.2906H1.95239" stroke="white" stroke-width="2.3" stroke-miterlimit="10" stroke-linecap="round" stroke-linejoin="round"/>
<path d="M40.0444 8.73279H1.95239" stroke="white" stroke-width="2.3" stroke-miterlimit="10" stroke-linecap="round" stroke-linejoin="round"/>
<path d="M5.5498 19.5046H15.8664" stroke="white" stroke-width="2.3" stroke-miterlimit="10" stroke-linecap="round" stroke-linejoin="round"/>
<path d="M5.5498 23.6648H8.79027" stroke="white" stroke-width="2.3" stroke-miterlimit="10" stroke-linecap="round" stroke-linejoin="round"/>
<path d="M33.061 24.7064C34.595 24.7064 35.8385 23.4006 35.8385 21.79C35.8385 20.1793 34.595 18.8735 33.061 18.8735C31.527 18.8735 30.2834 20.1793 30.2834 21.79C30.2834 23.4006 31.527 24.7064 33.061 24.7064Z" stroke="white" stroke-width="2.3" stroke-miterlimit="10" stroke-linecap="round" stroke-linejoin="round"/>
<path d="M31.0133 23.7481C30.4975 24.3397 29.7674 24.7064 28.958 24.7064C27.4263 24.7064 26.1804 23.3981 26.1804 21.79C26.1804 20.1818 27.4263 18.8735 28.958 18.8735C29.7753 18.8735 30.5054 19.2485 31.0133 19.8401" stroke="white" stroke-width="2.3" stroke-miterlimit="10" stroke-linecap="round" stroke-linejoin="round"/>
</svg>
