<svg width="70" height="70" viewBox="0 0 70 70" fill="green" xmlns="http://www.w3.org/2000/svg">
<path d="M31.0102 39.0979C32.2319 44.7268 35.2937 58.7835 35.2937 58.7835L39.6081 38.9587C45.5927 37.6598 58.7989 34.7835 58.7989 34.7835L39.5154 30.5928C38.2473 24.7474 35.2937 11.1855 35.2937 11.1855L31.103 30.4536C25.6597 31.6443 11.2009 34.7835 11.2009 34.7835L31.0102 39.0979Z" fill="#2A6112"/>
<path d="M8 34.799L30.5309 29.8969L35.2938 8L40.0876 30.0361L62 34.799L40.1804 39.5464L35.2938 62L30.4381 39.6856L8 34.799ZM35.2938 14.3866L31.6753 31.0412L14.3866 34.799L31.5825 38.5412L35.2938 55.6134L39.0361 38.4021L55.6134 34.799L38.9433 31.1804L35.2938 14.3866Z" fill="#2A6112"/>
<path d="M29.6496 35.0774C26.7424 39.5929 19.4898 50.897 19.4898 50.897L35.4177 40.6599C40.2269 43.7527 50.8352 50.5723 50.8352 50.5723L40.8764 35.0774C43.8919 30.3918 50.8971 19.4898 50.8971 19.4898L35.4177 29.4331C31.0414 26.6186 19.428 19.165 19.428 19.165L29.6496 35.0774Z" fill="#2A6112"/>
<path d="M17.1702 16.9072L35.4176 28.6289L53.1547 17.232L41.6805 35.0773L53.0928 52.8299L35.4176 41.4639L17.232 53.1547L28.8454 35.0773L17.1702 16.9072ZM48.6392 21.7474L35.4176 30.2526L21.6856 21.4227L30.4691 35.0773L21.7629 48.6392L35.4331 39.8557L48.5928 48.3144L40.0877 35.0773L48.6547 21.7474H48.6392Z" fill="#2A6112"/>
</svg>
