<svg width="24" height="24" viewBox="0 0 24 24" fill="none" xmlns="http://www.w3.org/2000/svg">
<g clip-path="url(#clip0_141819_944)">
<path d="M17.415 14.4655C17.118 14.3165 15.657 13.5985 15.385 13.4985C15.112 13.3995 14.914 13.3505 14.715 13.6485C14.518 13.9455 13.948 14.6145 13.775 14.8125C13.602 15.0115 13.428 15.0355 13.131 14.8875C12.834 14.7375 11.876 14.4245 10.741 13.4125C9.858 12.6245 9.261 11.6515 9.088 11.3535C8.915 11.0565 9.07 10.8955 9.218 10.7475C9.352 10.6145 9.516 10.4005 9.664 10.2275C9.813 10.0535 9.862 9.92954 9.962 9.73054C10.061 9.53254 10.012 9.35954 9.937 9.21054C9.862 9.06154 9.268 7.59854 9.021 7.00354C8.779 6.42454 8.534 6.50354 8.352 6.49354C8.1621 6.48597 7.97205 6.48264 7.782 6.48354C7.584 6.48354 7.262 6.55754 6.99 6.85554C6.718 7.15254 5.95 7.87154 5.95 9.33454C5.95 10.7965 7.015 12.2095 7.163 12.4085C7.312 12.6065 9.259 15.6085 12.24 16.8955C12.949 17.2015 13.502 17.3845 13.934 17.5205C14.646 17.7475 15.294 17.7155 15.805 17.6385C16.376 17.5535 17.563 16.9195 17.811 16.2255C18.059 15.5315 18.059 14.9365 17.984 14.8125C17.91 14.6885 17.713 14.6145 17.415 14.4655ZM11.993 21.8685H11.989C10.2188 21.8687 8.48108 21.3927 6.958 20.4905L6.597 20.2765L2.856 21.2585L3.854 17.6105L3.619 17.2365C2.62944 15.6608 2.10594 13.8372 2.109 11.9765C2.11 6.52654 6.545 2.09254 11.997 2.09254C14.637 2.09254 17.119 3.12254 18.985 4.99054C19.9057 5.90715 20.6354 6.99726 21.132 8.19778C21.6286 9.3983 21.8821 10.6854 21.878 11.9845C21.875 17.4345 17.441 21.8685 11.993 21.8685ZM20.406 3.57154C19.3042 2.46246 17.9932 1.58307 16.5491 0.984337C15.1049 0.385601 13.5563 0.0794198 11.993 0.0835371C5.438 0.0835371 0.103 5.41854 0.1 11.9755C0.1 14.0715 0.647 16.1175 1.688 17.9205L0 24.0835L6.305 22.4295C8.04859 23.3795 10.0024 23.8773 11.988 23.8775H11.993C18.547 23.8775 23.883 18.5425 23.886 11.9845C23.8908 10.4218 23.5858 8.87364 22.9884 7.42957C22.3911 5.9855 21.5134 4.67421 20.406 3.57154Z" fill="white"/>
</g>
<defs>
<clipPath id="clip0_141819_944">
<rect width="24" height="24" fill="white"/>
</clipPath>
</defs>
</svg>
