<svg width="54" height="54" viewBox="0 0 54 54" fill="none" xmlns="http://www.w3.org/2000/svg">
<path d="M23.0102 31.0979C24.2319 36.7268 27.2937 50.7835 27.2937 50.7835L31.6081 30.9587C37.5927 29.6598 50.7989 26.7835 50.7989 26.7835L31.5154 22.5928C30.2473 16.7474 27.2937 3.18555 27.2937 3.18555L23.103 22.4536C17.6597 23.6443 3.20093 26.7835 3.20093 26.7835L23.0102 31.0979Z" fill="#2A6112"/>
<path d="M0 26.799L22.5309 21.8969L27.2938 0L32.0876 22.0361L54 26.799L32.1804 31.5464L27.2938 54L22.4381 31.6856L0 26.799ZM27.2938 6.3866L23.6753 23.0412L6.3866 26.799L23.5825 30.5412L27.2938 47.6134L31.0361 30.4021L47.6134 26.799L30.9433 23.1804L27.2938 6.3866Z" fill="#2A6112"/>
<path d="M21.6496 27.0774C18.7424 31.5929 11.4898 42.897 11.4898 42.897L27.4177 32.6599C32.2269 35.7527 42.8352 42.5723 42.8352 42.5723L32.8764 27.0774C35.8919 22.3918 42.8971 11.4898 42.8971 11.4898L27.4177 21.4331C23.0414 18.6186 11.428 11.165 11.428 11.165L21.6496 27.0774Z" fill="#2A6112"/>
<path d="M9.17017 8.90723L27.4176 20.6289L45.1547 9.23197L33.6805 27.0773L45.0928 44.8299L27.4176 33.4639L9.23202 45.1547L20.8454 27.0773L9.17017 8.90723ZM40.6392 13.7474L27.4176 22.2526L13.6856 13.4227L22.4691 27.0773L13.7629 40.6392L27.4331 31.8557L40.5928 40.3144L32.0877 27.0773L40.6547 13.7474H40.6392Z" fill="#2A6112"/>
</svg>
